<mxfile host="app.diagrams.net" modified="2023-11-13T05:00:39.128Z" agent="Mozilla/5.0 (Windows NT 10.0; Win64; x64) AppleWebKit/537.36 (KHTML, like Gecko) Chrome/119.0.0.0 Safari/537.36" etag="MkCOoVzgHPLeRJahx4Sy" version="22.1.0" type="github">
  <diagram id="yPxyJZ8AM_hMuL3Unpa9" name="gitflow">
    <mxGraphModel dx="1080" dy="703" grid="1" gridSize="10" guides="1" tooltips="1" connect="1" arrows="1" fold="1" page="1" pageScale="1" pageWidth="850" pageHeight="1100" math="0" shadow="0">
      <root>
        <mxCell id="0" />
        <mxCell id="1" parent="0" />
        <mxCell id="AEtrPZs2UYAUVShnakG7-192" value="" style="edgeStyle=orthogonalEdgeStyle;rounded=0;orthogonalLoop=1;jettySize=auto;html=1;strokeWidth=3;exitX=0.5;exitY=1;exitDx=0;exitDy=0;exitPerimeter=0;" edge="1" parent="1" source="AEtrPZs2UYAUVShnakG7-203" target="AEtrPZs2UYAUVShnakG7-207">
          <mxGeometry relative="1" as="geometry">
            <mxPoint x="550" y="523.75" as="sourcePoint" />
            <mxPoint x="630" y="780" as="targetPoint" />
          </mxGeometry>
        </mxCell>
        <mxCell id="AEtrPZs2UYAUVShnakG7-185" value="" style="points=[[0.35,0,0],[0.98,0.51,0],[1,0.71,0],[0.67,1,0],[0,0.795,0],[0,0.65,0]];verticalLabelPosition=bottom;sketch=0;html=1;verticalAlign=top;aspect=fixed;align=center;pointerEvents=1;shape=mxgraph.cisco19.user;fillColor=#005073;strokeColor=none;" vertex="1" parent="1">
          <mxGeometry x="50" y="450" width="90" height="90" as="geometry" />
        </mxCell>
        <mxCell id="AEtrPZs2UYAUVShnakG7-199" value="Amazon S3" style="sketch=0;outlineConnect=0;fontColor=#232F3E;gradientColor=none;strokeColor=#ffffff;fillColor=#232F3E;dashed=0;verticalLabelPosition=middle;verticalAlign=bottom;align=center;html=1;whiteSpace=wrap;fontSize=10;fontStyle=1;spacing=3;shape=mxgraph.aws4.productIcon;prIcon=mxgraph.aws4.s3;" vertex="1" parent="1">
          <mxGeometry x="405" y="420" width="80" height="100" as="geometry" />
        </mxCell>
        <mxCell id="AEtrPZs2UYAUVShnakG7-201" value="" style="edgeStyle=orthogonalEdgeStyle;rounded=0;orthogonalLoop=1;jettySize=auto;html=1;strokeWidth=3;" edge="1" parent="1" target="AEtrPZs2UYAUVShnakG7-203">
          <mxGeometry relative="1" as="geometry">
            <mxPoint x="530" y="200" as="sourcePoint" />
            <mxPoint x="600" y="410" as="targetPoint" />
            <Array as="points" />
          </mxGeometry>
        </mxCell>
        <mxCell id="AEtrPZs2UYAUVShnakG7-203" value="AWS CodeDeploy" style="sketch=0;outlineConnect=0;fontColor=#232F3E;gradientColor=none;strokeColor=#ffffff;fillColor=#232F3E;dashed=0;verticalLabelPosition=middle;verticalAlign=bottom;align=center;html=1;whiteSpace=wrap;fontSize=10;fontStyle=1;spacing=3;shape=mxgraph.aws4.productIcon;prIcon=mxgraph.aws4.codedeploy;" vertex="1" parent="1">
          <mxGeometry x="700" y="430" width="80" height="110" as="geometry" />
        </mxCell>
        <mxCell id="AEtrPZs2UYAUVShnakG7-197" value="" style="dashed=0;outlineConnect=0;html=1;align=center;labelPosition=center;verticalLabelPosition=bottom;verticalAlign=top;shape=mxgraph.weblogos.github" vertex="1" parent="1">
          <mxGeometry x="230" y="220" width="75" height="75" as="geometry" />
        </mxCell>
        <mxCell id="AEtrPZs2UYAUVShnakG7-206" value="" style="edgeStyle=orthogonalEdgeStyle;rounded=0;orthogonalLoop=1;jettySize=auto;html=1;strokeWidth=3;exitX=0.98;exitY=0.51;exitDx=0;exitDy=0;exitPerimeter=0;" edge="1" parent="1" source="AEtrPZs2UYAUVShnakG7-185">
          <mxGeometry relative="1" as="geometry">
            <mxPoint x="90" y="370" as="sourcePoint" />
            <mxPoint x="267" y="340" as="targetPoint" />
            <Array as="points" />
          </mxGeometry>
        </mxCell>
        <mxCell id="AEtrPZs2UYAUVShnakG7-212" value="" style="sketch=0;outlineConnect=0;fontColor=#232F3E;gradientColor=none;fillColor=#232F3D;strokeColor=none;dashed=0;verticalLabelPosition=bottom;verticalAlign=top;align=center;html=1;fontSize=12;fontStyle=0;aspect=fixed;pointerEvents=1;shape=mxgraph.aws4.git_repository;" vertex="1" parent="1">
          <mxGeometry x="460" y="160" width="60" height="78" as="geometry" />
        </mxCell>
        <mxCell id="AEtrPZs2UYAUVShnakG7-213" value="" style="edgeStyle=orthogonalEdgeStyle;rounded=0;orthogonalLoop=1;jettySize=auto;html=1;strokeWidth=3;" edge="1" parent="1" source="AEtrPZs2UYAUVShnakG7-197" target="AEtrPZs2UYAUVShnakG7-212">
          <mxGeometry relative="1" as="geometry">
            <mxPoint x="330" y="259" as="sourcePoint" />
            <mxPoint x="417" y="257" as="targetPoint" />
            <Array as="points" />
          </mxGeometry>
        </mxCell>
        <mxCell id="AEtrPZs2UYAUVShnakG7-215" value="" style="edgeStyle=orthogonalEdgeStyle;rounded=0;orthogonalLoop=1;jettySize=auto;html=1;strokeWidth=3;exitX=0.393;exitY=1.138;exitDx=0;exitDy=0;exitPerimeter=0;" edge="1" parent="1" source="AEtrPZs2UYAUVShnakG7-233" target="AEtrPZs2UYAUVShnakG7-199">
          <mxGeometry relative="1" as="geometry">
            <mxPoint x="480" y="310" as="sourcePoint" />
            <mxPoint x="595" y="340" as="targetPoint" />
            <Array as="points" />
          </mxGeometry>
        </mxCell>
        <mxCell id="AEtrPZs2UYAUVShnakG7-217" value="" style="group" vertex="1" connectable="0" parent="1">
          <mxGeometry x="360" y="660" width="170" height="170" as="geometry" />
        </mxCell>
        <mxCell id="AEtrPZs2UYAUVShnakG7-207" value="VPC" style="sketch=0;outlineConnect=0;gradientColor=none;html=1;whiteSpace=wrap;fontSize=12;fontStyle=0;shape=mxgraph.aws4.group;grIcon=mxgraph.aws4.group_vpc;strokeColor=#879196;fillColor=none;verticalAlign=top;align=left;spacingLeft=30;fontColor=#879196;dashed=0;" vertex="1" parent="AEtrPZs2UYAUVShnakG7-217">
          <mxGeometry width="170" height="170" as="geometry" />
        </mxCell>
        <mxCell id="AEtrPZs2UYAUVShnakG7-202" value="Amazon EC2" style="sketch=0;outlineConnect=0;fontColor=#232F3E;gradientColor=none;strokeColor=#ffffff;fillColor=#232F3E;dashed=0;verticalLabelPosition=middle;verticalAlign=bottom;align=center;html=1;whiteSpace=wrap;fontSize=10;fontStyle=1;spacing=3;shape=mxgraph.aws4.productIcon;prIcon=mxgraph.aws4.ec2;" vertex="1" parent="AEtrPZs2UYAUVShnakG7-217">
          <mxGeometry x="45" y="40" width="80" height="100" as="geometry" />
        </mxCell>
        <mxCell id="AEtrPZs2UYAUVShnakG7-219" value="" style="edgeStyle=orthogonalEdgeStyle;rounded=0;orthogonalLoop=1;jettySize=auto;html=1;strokeWidth=3;shadow=0;" edge="1" parent="1" source="AEtrPZs2UYAUVShnakG7-203" target="AEtrPZs2UYAUVShnakG7-199">
          <mxGeometry relative="1" as="geometry">
            <mxPoint x="610" y="360" as="sourcePoint" />
            <mxPoint x="640" y="537" as="targetPoint" />
            <Array as="points">
              <mxPoint x="610" y="440" />
              <mxPoint x="610" y="470" />
            </Array>
          </mxGeometry>
        </mxCell>
        <mxCell id="AEtrPZs2UYAUVShnakG7-222" value="2. Send to Github Action" style="whiteSpace=wrap;html=1;strokeWidth=2;rounded=1;glass=0;shadow=0;fontSize=15;fontStyle=1" vertex="1" parent="1">
          <mxGeometry x="310" y="130" width="120" height="60" as="geometry" />
        </mxCell>
        <mxCell id="AEtrPZs2UYAUVShnakG7-225" value="1. Push&amp;nbsp;" style="whiteSpace=wrap;html=1;strokeWidth=2;rounded=1;glass=0;shadow=0;fontSize=15;fontStyle=1" vertex="1" parent="1">
          <mxGeometry x="140" y="420" width="120" height="60" as="geometry" />
        </mxCell>
        <mxCell id="AEtrPZs2UYAUVShnakG7-227" value="3. Build" style="whiteSpace=wrap;html=1;strokeWidth=2;rounded=1;glass=0;shadow=0;fontSize=15;fontStyle=1" vertex="1" parent="1">
          <mxGeometry x="470" y="90" width="120" height="60" as="geometry" />
        </mxCell>
        <mxCell id="AEtrPZs2UYAUVShnakG7-228" value="4. Send build files to S3" style="whiteSpace=wrap;html=1;strokeWidth=2;rounded=1;glass=0;shadow=0;fontSize=15;fontStyle=1" vertex="1" parent="1">
          <mxGeometry x="485" y="295" width="120" height="60" as="geometry" />
        </mxCell>
        <mxCell id="AEtrPZs2UYAUVShnakG7-229" value="5. Create Development" style="whiteSpace=wrap;html=1;strokeWidth=2;rounded=1;glass=0;shadow=0;fontSize=15;fontStyle=1" vertex="1" parent="1">
          <mxGeometry x="680" y="270" width="120" height="60" as="geometry" />
        </mxCell>
        <mxCell id="AEtrPZs2UYAUVShnakG7-230" value="6. Get Build Files from S3" style="whiteSpace=wrap;html=1;strokeWidth=2;rounded=1;glass=0;shadow=0;fontSize=15;fontStyle=1" vertex="1" parent="1">
          <mxGeometry x="540" y="480" width="120" height="60" as="geometry" />
        </mxCell>
        <mxCell id="AEtrPZs2UYAUVShnakG7-232" value="7. Save files and Execute Script" style="whiteSpace=wrap;html=1;strokeWidth=2;rounded=1;glass=0;shadow=0;fontSize=15;fontStyle=1" vertex="1" parent="1">
          <mxGeometry x="540" y="610" width="120" height="60" as="geometry" />
        </mxCell>
        <mxCell id="AEtrPZs2UYAUVShnakG7-233" value="Github Actions" style="text;html=1;strokeColor=none;fillColor=none;align=center;verticalAlign=middle;whiteSpace=wrap;rounded=0;fontStyle=1;fontSize=14;" vertex="1" parent="1">
          <mxGeometry x="430" y="240" width="120" height="30" as="geometry" />
        </mxCell>
        <mxCell id="AEtrPZs2UYAUVShnakG7-234" value="Github" style="text;html=1;strokeColor=none;fillColor=none;align=center;verticalAlign=middle;whiteSpace=wrap;rounded=0;fontStyle=1;fontSize=14;" vertex="1" parent="1">
          <mxGeometry x="207.5" y="300" width="120" height="30" as="geometry" />
        </mxCell>
        <mxCell id="AEtrPZs2UYAUVShnakG7-236" value="Local Env" style="text;html=1;strokeColor=none;fillColor=none;align=center;verticalAlign=middle;whiteSpace=wrap;rounded=0;fontStyle=1;fontSize=14;" vertex="1" parent="1">
          <mxGeometry x="35" y="540" width="120" height="30" as="geometry" />
        </mxCell>
      </root>
    </mxGraphModel>
  </diagram>
</mxfile>
